<svg width="24" height="24" xmlns="http://www.w3.org/2000/svg" fill-rule="evenodd" clip-rule="evenodd"><path d="M18.5 21.05c.715 0 1.5.566 1.5 1.5 0 .715-.566 1.5-1.5 1.5h-14c-.929 0-1.5-.776-1.5-1.5 0-.72.573-1.5 1.5-1.5h14zm-.089-1h-13.895c-1.749-5.978 7.02-8.2 4.672-10.431-1.366-1.298-2.838 1.544-4.771.914-1.313-.427-1.985-2.881-.715-3.483 2.357-1.118 2.076-3.365 3.113-4.153 1.167-.886 2.347.211 3.108-.383.48-.376-.015-1.416-.773-2.464 5.541.565 8.469 3.854 9.459 7h-1.756c-.24 0-.5.189-.5.5 0 .239.189.5.5.5h2.007c.094.496.14.979.14 1.44l-.012.56h-1.841c-.31 0-.5.26-.5.5 0 .239.19.5.5.5h1.76c-.092.747-.243 1.406-.419 2h-1.988c-.311 0-.5.26-.5.5 0 .239.189.5.5.5h1.651c-.879 2.364-1.852 3.669.26 6zm-10.175-16c.422 0 .764.307.764.684 0 .378-.342.684-.764.684-.421 0-.763-.306-.763-.684 0-.377.342-.684.763-.684z"/></svg>